:SAMPLES-PER-SECOND 30
:FULLY-SPECIFIED
:DEGREES
49
root  13.9042 39.0865 4.31464 -15.938 -80.4193 10.3474
RightUpLeg  3.25243 -12.3899 -8.63584
RightLeg  16.8935 3.57009 1.3611
RightFoot  -13.41 -0.0602735 1.6947
RightToes  1.33877e-009 0 -3.6325e-017
Spine  7.45403 -1.4535 8.70101
Spine1  5.44444 -0.0449422 -1.5163
HEad  2.07099 3.43142 -9.94615
LeftShoulder1  -1.30082 6.99536 -31.0383
LeftArm  -6.80355 24.9518 -44.975
LeftForeArm  28.3215 -12.3032 -6.29849
LeftHand  -0.0254633 8.72696 0.671662
RightShoulder  -1.12086 -6.99624 25.5654
RightArm  -3.02724 -18.976 44.7535
RightForeArm  11.3928 8.6699 0.598419
RightHand  -0.319721 4.85858 -3.92946
LeftUpLeg  -12.9899 6.31694 5.44793
LeftLeg  33.7427 -8.47106 -5.71305
LeftFoot  -4.17083 0.731484 -11.2503
LeftToes  -1.45701e-009 4.75788e-011 -4.21586e-011
50
root  13.6391 39.1286 4.52137 -17.9107 -79.1701 12.3621
RightUpLeg  4.38945 -12.9416 -9.90105
RightLeg  16.1545 3.29645 1.38504
RightFoot  -13.5347 -0.0489362 2.23576
RightToes  1.33877e-009 0 -3.6325e-017
Spine  7.49898 -1.37287 7.70709
Spine1  5.34824 -0.211173 -0.860989
HEad  2.27717 3.6897 -10.2589
LeftShoulder1  -1.41442 7.14248 -32.6756
LeftArm  -7.71588 27.2604 -45.6193
LeftForeArm  32.789 -9.91871 -6.82209
LeftHand  -0.143848 9.25709 -2.65471
RightShoulder  -1.1365 -6.99178 26.0303
RightArm  -1.83427 -20.4565 46.4932
RightForeArm  11.3668 9.96012 1.2963
RightHand  -0.376105 4.46445 -4.67896
LeftUpLeg  -13.5085 6.75701 5.54559
LeftLeg  32.0481 -7.80204 -4.90562
LeftFoot  -4.65726 0.665111 -10.883
LeftToes  -1.45701e-009 4.75788e-011 -4.21586e-011
51
root  13.3547 39.1599 4.74789 -18.2716 -77.9768 12.79
RightUpLeg  5.50682 -13.0609 -10.6768
RightLeg  15.374 2.53269 1.07846
RightFoot  -13.608 -0.0373061 2.7732
RightToes  1.33877e-009 0 -3.6325e-017
Spine  7.33795 -1.39005 7.36287
Spine1  5.47628 -0.211834 -1.33961
HEad  2.88724 3.54874 -10.1623
LeftShoulder1  -1.3536 6.98126 -32.7271
LeftArm  -9.48135 29.4443 -46.999
LeftForeArm  35.4097 -7.61518 -6.65154
LeftHand  -0.306614 12.1902 -3.95824
RightShoulder  -1.23486 -7.18094 27.0774
RightArm  0.486357 -20.8875 46.9989
RightForeArm  11.8925 11.1738 2.25145
RightHand  -0.513183 5.76102 -5.67223
LeftUpLeg  -13.6656 6.94342 6.13971
LeftLeg  28.8314 -7.377 -4.05698
LeftFoot  -5.02514 0.576944 -9.89397
LeftToes  -1.45701e-009 4.75788e-011 -4.21586e-011
52
root  13.0682 39.1659 5.02912 -17.8694 -76.911 12.5355
RightUpLeg  6.62706 -13.2472 -11.4455
RightLeg  14.4695 1.96322 1.00857
RightFoot  -13.676 -0.0212891 3.50627
RightToes  1.33877e-009 0 -3.6325e-017
Spine  7.07289 -1.32601 7.16514
Spine1  5.68683 -0.121188 -1.90115
HEad  2.85746 3.17747 -9.37832
LeftShoulder1  -1.25618 6.73432 -32.6844
LeftArm  -10.6791 31.0724 -47.5373
LeftForeArm  36.0277 -5.93694 -6.00045
LeftHand  -0.415454 11.9681 -5.90334
RightShoulder  -1.24026 -7.15972 27.4181
RightArm  4.02174 -20.6716 46.8754
RightForeArm  14.0998 12.8615 3.29282
RightHand  -0.427126 4.68725 -5.20874
LeftUpLeg  -13.5724 6.56457 6.92945
LeftLeg  24.5371 -6.96393 -3.13721
LeftFoot  -5.24412 0.532788 -9.40312
LeftToes  -1.45701e-009 4.75788e-011 -4.21586e-011
53
root  12.7654 39.1637 5.36188 -17.419 -76.1018 12.352
RightUpLeg  7.55242 -13.3701 -12.1464
RightLeg  13.6603 1.50558 0.904824
RightFoot  -13.6917 -0.00865096 4.10391
RightToes  1.33877e-009 0 -3.6325e-017
Spine  6.65474 -1.18445 7.10697
Spine1  6.02136 0.129083 -2.77818
HEad  3.22647 2.37911 -9.56825
LeftShoulder1  -1.1477 6.49176 -32.2326
LeftArm  -10.851 32.1618 -47.1511
LeftForeArm  36.5561 -5.60518 -5.79687
LeftHand  -0.533724 12.0443 -7.81843
RightShoulder  -1.24427 -7.13555 27.7505
RightArm  7.98322 -19.4931 46.0209
RightForeArm  15.6682 13.9788 4.07936
RightHand  -0.336458 4.76561 -4.1497
LeftUpLeg  -13.164 6.17201 7.85344
LeftLeg  19.4786 -7.02975 -2.4461
LeftFoot  -4.86147 0.547569 -9.14627
LeftToes  -1.45701e-009 4.75788e-011 -4.21586e-011
54
root  12.4602 39.1362 5.75302 -16.7316 -75.6187 12.007
RightUpLeg  8.23197 -13.3364 -12.6705
RightLeg  13.022 1.22567 0.683907
RightFoot  -13.7702 0.0081815 4.78356
RightToes  1.33877e-009 0 -3.6325e-017
Spine  5.91795 -0.780172 6.86489
Spine1  6.82365 0.506031 -3.01857
HEad  3.29379 1.60914 -9.27167
LeftShoulder1  -1.08614 6.31707 -32.4277
LeftArm  -10.4314 32.0584 -45.7743
LeftForeArm  37.2249 -5.77086 -5.83497
LeftHand  -0.543632 12.1215 -7.88925
RightShoulder  -1.1407 -6.91333 26.9336
RightArm  10.8312 -17.8554 45.5779
RightForeArm  15.9446 14.6877 4.53205
RightHand  -0.347274 3.85116 -4.61448
LeftUpLeg  -12.7933 5.8028 8.84543
LeftLeg  14.7165 -7.04512 -1.75028
LeftFoot  -4.39136 0.571085 -8.95173
LeftToes  -1.45701e-009 4.75788e-011 -4.21586e-011
55
root  12.1232 39.0783 6.22449 -15.5297 -74.961 10.9747
RightUpLeg  9.32979 -13.3882 -13.2911
RightLeg  12.2398 0.879258 0.561561
RightFoot  -13.9165 0.0316015 5.61291
RightToes  1.33877e-009 0 -3.6325e-017
Spine  5.77449 -0.711643 6.84235
Spine1  6.8144 0.670511 -3.71249
HEad  3.15524 0.998099 -8.38814
LeftShoulder1  -1.03462 6.20231 -32.1536
LeftArm  -9.76339 31.7887 -44.1343
LeftForeArm  36.6347 -6.36072 -5.99272
LeftHand  -0.49143 11.5469 -7.77819
RightShoulder  -1.10234 -6.81339 26.7744
RightArm  12.6265 -15.4587 44.1309
RightForeArm  15.9159 14.3709 4.89621
RightHand  -0.311532 3.67944 -4.24028
LeftUpLeg  -12.5951 6.10978 9.61461
LeftLeg  11.2241 -7.0558 -1.04503
LeftFoot  -3.84871 0.579482 -8.5154
LeftToes  -1.45701e-009 4.75788e-011 -4.21586e-011
56
root  11.7851 38.995 6.776 -14.0458 -74.3695 9.59741
RightUpLeg  10.5395 -13.4109 -13.9031
RightLeg  11.4015 0.609559 0.437567
RightFoot  -13.9678 0.0557652 6.55877
RightToes  1.33877e-009 0 -3.6325e-017
Spine  5.84186 -0.68738 6.89557
Spine1  6.6584 0.806372 -4.3739
HEad  3.6764 0.363242 -8.23902
LeftShoulder1  -0.943144 6.00941 -31.4773
LeftArm  -9.49052 30.903 -43.1038
LeftForeArm  35.0142 -6.68014 -6.03606
LeftHand  -0.408073 11.834 -5.92462
RightShoulder  -1.05125 -6.6797 26.5448
RightArm  12.6377 -12.9998 42.5004
RightForeArm  14.5523 13.791 5.04036
RightHand  -0.358017 3.70692 -4.82483
LeftUpLeg  -12.7612 6.96935 10.1739
LeftLeg  9.65046 -5.47334 -0.270748
LeftFoot  -3.00202 0.516474 -6.81317
LeftToes  -1.45701e-009 4.75788e-011 -4.21586e-011
57
root  11.4517 38.8411 7.43052 -12.7747 -73.6185 8.26014
RightUpLeg  11.8232 -13.7086 -14.9207
RightLeg  11.0696 0.611781 0.473528
RightFoot  -14.3283 0.103613 7.68013
RightToes  1.33877e-009 0 -3.6325e-017
Spine  6.15458 -0.720996 6.74231
Spine1  6.52907 0.796888 -4.54054
HEad  3.54036 -0.209367 -8.10798
LeftShoulder1  -0.910657 5.92679 -31.4063
LeftArm  -9.31086 28.9708 -41.9651
LeftForeArm  34.225 -6.99743 -5.97391
LeftHand  -0.211458 9.33651 -4.54928
RightShoulder  -0.97389 -6.50666 25.8633
RightArm  10.4502 -10.6555 41.1644
RightForeArm  13.9122 13.0884 4.70277
RightHand  -0.344036 3.42058 -4.77624
LeftUpLeg  -13.193 7.41391 10.4452
LeftLeg  10.3077 -1.96824 0.342916
LeftFoot  -3.12239 0.374648 -4.95541
LeftToes  -1.45701e-009 4.75788e-011 -4.21586e-011
58
root  11.1085 38.6455 8.21121 -11.9162 -73.0736 7.28963
RightUpLeg  12.9905 -13.9294 -16.1087
RightLeg  11.0778 0.873442 0.289386
RightFoot  -14.773 0.171724 9.08592
RightToes  1.33877e-009 0 -3.6325e-017
Spine  6.42226 -0.71112 6.98861
Spine1  6.60908 1.03248 -5.44987
HEad  3.46225 -0.692121 -7.16439
LeftShoulder1  -0.825632 5.7367 -30.8136
LeftArm  -8.97674 26.4873 -41.5464
LeftForeArm  31.6726 -7.57612 -6.18727
LeftHand  -0.0884119 9.63419 -0.85003
RightShoulder  -0.953801 -6.44902 25.7999
RightArm  8.37167 -7.95498 39.1843
RightForeArm  11.0532 12.1274 4.38948
RightHand  -0.356598 3.53638 -4.87467
LeftUpLeg  -13.5629 8.03557 10.317
LeftLeg  12.2903 1.57072 0.915371
LeftFoot  -2.78969 0.296564 -3.75485
LeftToes  -1.45701e-009 4.75788e-011 -4.21586e-011
59
root  10.7478 38.4436 9.06023 -11.1502 -72.487 6.50063
RightUpLeg  14.2233 -14.0055 -17.3626
RightLeg  10.9355 0.995594 -0.00245566
RightFoot  -15.0095 0.241391 10.6748
RightToes  1.33877e-009 0 -3.6325e-017
Spine  6.59436 -0.691397 6.70219
Spine1  6.62802 1.08582 -5.76686
HEad  3.21951 -1.51044 -6.42969
LeftShoulder1  -0.800696 5.67553 -30.7026
LeftArm  -8.6343 23.9095 -41.1802
LeftForeArm  29.1684 -8.84365 -6.27486
LeftHand  0.010704 8.50184 2.00632
RightShoulder  -0.849827 -6.1827 25.1026
RightArm  6.17766 -6.14835 37.552
RightForeArm  9.15817 12.2111 3.79703
RightHand  -0.283095 2.4979 -4.37463
LeftUpLeg  -14.0858 9.10112 9.78079
LeftLeg  14.9275 3.25826 1.32595
LeftFoot  -1.16632 0.466736 -5.05371
LeftToes  -1.45701e-009 4.75788e-011 -4.21586e-011
60
root  10.3765 38.1881 10.0264 -12.7111 -71.8094 7.9471
RightUpLeg  15.3682 -14.0109 -19.5939
RightLeg  11.4723 1.50886 -0.461939
RightFoot  -15.4403 0.3598 12.9357
RightToes  1.33877e-009 0 -3.6325e-017
Spine  7.26117 -0.678459 5.67064
Spine1  6.22255 1.06993 -5.91701
HEad  3.51343 -2.51657 -5.7194
LeftShoulder1  -0.78084 5.63102 -30.5422
LeftArm  -7.39142 21.1079 -40.8984
LeftForeArm  25.703 -10.4702 -6.46352
LeftHand  0.043295 7.74821 3.8591
RightShoulder  -0.758823 -5.96964 24.0944
RightArm  4.89143 -4.8646 36.3848
RightForeArm  4.99642 12.6757 3.56199
RightHand  -0.345372 2.9845 -5.00924
LeftUpLeg  -14.522 10.2649 8.30251
LeftLeg  17.5523 2.443 1.158
LeftFoot  0.802309 0.717291 -6.81694
LeftToes  -1.45701e-009 4.75788e-011 -4.21586e-011
